<?xml version="1.0" encoding="UTF-8"?>
<svg version="1.1" xmlns="http://www.w3.org/2000/svg" width="968" height="968">
<path d="M0 0 C91.37611038 -3.25482187 184.52466792 33.19057368 267.59375 101.8046875 C269.59601476 103.63142905 271.62891702 105.40129974 273.68359375 107.16796875 C278.51611024 111.38670722 283.03890911 115.89224787 287.5625 120.4375 C288.37396484 121.24509766 289.18542969 122.05269531 290.02148438 122.88476562 C294.88888948 127.76002772 299.54585175 132.7451806 304 138 C304.54245361 138.63574951 305.08490723 139.27149902 305.64379883 139.92651367 C337.66540352 177.69765712 362.13148842 220.48062644 379 267 C379.32452148 267.88300781 379.64904297 268.76601563 379.98339844 269.67578125 C391.65507993 301.71373727 398.5037314 336.0387889 401 370 C401.05639648 370.73992187 401.11279297 371.47984375 401.17089844 372.2421875 C401.90693273 382.17211765 402.1304295 392.04388136 402 402 C401.01 402 400.02 402 399 402 C399.02320313 403.08152344 399.04640625 404.16304688 399.0703125 405.27734375 C399.98594961 467.4236309 382.77706924 528.82992055 355 584 C354.36843994 585.27278809 354.36843994 585.27278809 353.72412109 586.57128906 C341.70535307 610.72499525 326.44334788 633.42972509 309 654 C308.17371094 654.99902344 307.34742188 655.99804688 306.49609375 657.02734375 C293.52032699 672.66241264 279.507984 687.84419699 264 701 C263.03191406 701.85722656 262.06382812 702.71445312 261.06640625 703.59765625 C200.93601133 756.60241185 123.20660146 788.72114787 44 798 C42.98856934 798.11859375 41.97713867 798.2371875 40.93505859 798.359375 C-29.84647958 806.22009119 -103.7007324 793.41152031 -168 763 C-169.03286133 762.51305664 -170.06572266 762.02611328 -171.12988281 761.52441406 C-219.2573098 738.6237921 -265.62990865 705.1814762 -300 664 C-300.80308594 663.07445312 -301.60617187 662.14890625 -302.43359375 661.1953125 C-309.27629289 653.28174329 -315.61689058 645.04638022 -321.8046875 636.61279297 C-322.79428462 635.2775645 -323.81512269 633.96555404 -324.84375 632.66015625 C-326 631 -326 631 -326 629 C-327.1295813 629.00888245 -328.2591626 629.01776489 -329.42297363 629.0269165 C-340.13128601 629.10843007 -350.83953445 629.16816911 -361.54808807 629.20724869 C-367.05188551 629.22801613 -372.55543007 629.25613296 -378.05908203 629.30175781 C-383.38242536 629.34560567 -388.70552732 629.36921836 -394.02903748 629.37950897 C-396.04776299 629.3868311 -398.06647711 629.40112677 -400.08509827 629.42292023 C-425.84541469 629.68966688 -449.35082876 623.11801295 -468.25390625 604.7421875 C-469.61322266 603.38480469 -469.61322266 603.38480469 -471 602 C-471.73089844 601.28070312 -472.46179688 600.56140625 -473.21484375 599.8203125 C-481.64897312 590.96865198 -487.53903429 580.39453575 -491.4375 568.875 C-491.78965576 567.8387146 -491.78965576 567.8387146 -492.14892578 566.78149414 C-495.46352066 556.22066984 -496.29870808 545.39772437 -496.26069641 534.38970947 C-496.26452196 533.19003217 -496.26834751 531.99035488 -496.27228898 530.75432372 C-496.28074946 527.46440585 -496.28041338 524.17463305 -496.27610838 520.88471174 C-496.2736225 517.32083464 -496.28267829 513.75698282 -496.29014587 510.19311523 C-496.30284404 503.22615095 -496.30469265 496.25922529 -496.30234561 489.29225138 C-496.30055663 483.62384348 -496.30232448 477.95544722 -496.30657005 472.28704071 C-496.30716524 471.47775416 -496.30776043 470.66846762 -496.30837366 469.83465724 C-496.30958551 468.19013661 -496.31079965 466.54561598 -496.31201603 464.90109536 C-496.32287299 449.50545595 -496.32073797 434.10983848 -496.31463119 418.71419784 C-496.30946495 404.66178618 -496.32071301 390.60944391 -496.33972941 376.55704597 C-496.35915058 362.09351705 -496.36735624 347.6300209 -496.36360615 333.16647887 C-496.36170043 325.06018397 -496.36411995 316.95394808 -496.37832069 308.84766388 C-496.39029026 301.94572237 -496.39157746 295.04387619 -496.37953053 288.14193323 C-496.37368037 284.62786249 -496.37243373 281.11396563 -496.38453293 277.59990692 C-496.47042766 246.42997092 -492.58967826 220.22825573 -470 197 C-469.35289062 196.29101562 -468.70578125 195.58203125 -468.0390625 194.8515625 C-453.14942807 178.98954378 -431.25255889 171.46816721 -410 170 C-404.26858766 169.82570057 -398.53957504 169.9987938 -392.80938339 170.15351868 C-388.10926191 170.2674016 -383.40822037 170.30147064 -378.70703125 170.34765625 C-372.77597678 170.40737257 -366.84905258 170.49123937 -360.92041016 170.67529297 C-338.44215407 172.63740005 -338.44215407 172.63740005 -318.40185547 165.13012695 C-315.20970912 161.49106399 -313.01967061 157.62795839 -311.07528687 153.21324158 C-309.38719823 149.73868229 -306.95046816 147.03232135 -304.375 144.1875 C-303.47495959 143.14330657 -302.57631263 142.09790877 -301.6796875 141.05078125 C-293.84732559 132.09747316 -285.64443057 123.55351469 -277.25 115.125 C-276.45787109 114.32819824 -275.66574219 113.53139648 -274.84960938 112.71044922 C-270.0611939 107.93505663 -265.15526786 103.37596816 -260 99 C-259.35853027 98.45182617 -258.71706055 97.90365234 -258.05615234 97.33886719 C-248.40238344 89.14122648 -238.47717284 81.50591655 -228.01269531 74.37304688 C-226.11286079 73.07699285 -224.2238914 71.76639515 -222.3359375 70.453125 C-211.94537113 63.29898777 -201.03442358 57.09881536 -190 51 C-189.16758789 50.5344873 -188.33517578 50.06897461 -187.47753906 49.58935547 C-131.11295596 18.21997994 -64.40234574 1.76460013 0 3 C0 2.01 0 1.02 0 0 Z " fill="#1D8FFE" transform="translate(531,84)"/>
<path d="M0 0 C1.63481384 0.00301015 3.26962955 0.00511487 4.90444565 0.00640106 C9.32534114 0.01239473 13.74610439 0.0308391 18.16695166 0.05164433 C22.91191205 0.07182691 27.65689513 0.08052765 32.40188599 0.09051514 C40.4810442 0.10886603 48.56015649 0.13412121 56.63928223 0.16333008 C67.87180322 0.20336933 79.10429385 0.22310898 90.33687353 0.23733997 C109.70346365 0.2620274 129.06983208 0.31240949 148.43629074 0.38803864 C158.85352851 0.42830895 169.27067984 0.46058768 179.68798828 0.47509766 C189.041739 0.48813706 198.39532852 0.51504225 207.74898827 0.55871463 C212.62310956 0.58104417 217.49703496 0.59702861 222.37121201 0.59598541 C226.89178225 0.59523628 231.41190238 0.61328659 235.93235588 0.64526939 C237.57049567 0.65369078 239.20868637 0.65557207 240.846838 0.64990425 C254.87324388 0.60785283 268.16444391 2.5882259 280.87841797 8.95410156 C281.58506592 9.29916748 282.29171387 9.6442334 283.01977539 9.99975586 C289.20949466 13.11050468 294.74049675 16.76227041 300.06591797 21.20410156 C301.56058594 22.43773437 301.56058594 22.43773437 303.08544922 23.69628906 C319.79559002 37.97123091 330.1816946 58.44774241 333.06591797 80.20410156 C333.21964817 84.17283488 333.21373746 88.1396708 333.21308899 92.11100769 C333.21676568 93.31962709 333.22044237 94.52824649 333.22423047 95.77349073 C333.23333064 99.12093567 333.23796116 102.4683317 333.24061978 105.81578434 C333.24453433 109.42958066 333.25411209 113.04336295 333.26283264 116.65715027 C333.28256859 125.38303248 333.29266137 134.10891581 333.30156043 142.83481476 C333.30594959 146.95113431 333.31131491 151.06745259 333.3165493 155.18377113 C333.33356163 168.88103944 333.34805233 182.57830697 333.35529804 196.27558422 C333.35720773 199.82784717 333.35912809 203.38011012 333.36108398 206.93237305 C333.36156772 207.81519934 333.36205146 208.69802564 333.36254986 209.60760424 C333.37083717 223.88545079 333.39615204 238.1632132 333.42866466 252.44102307 C333.46182416 267.12355756 333.47975496 281.80604943 333.48294228 296.48862153 C333.48509959 304.72254645 333.49373283 312.95634881 333.51940346 321.19023705 C333.54123262 328.20794955 333.54910156 335.22550975 333.53943668 342.24325236 C333.53492648 345.81631216 333.53658332 349.38905855 333.55619812 352.96207428 C333.74925884 390.18388723 333.74925884 390.18388723 325.06591797 406.20410156 C324.53482422 407.3165625 324.00373047 408.42902344 323.45654297 409.57519531 C316.13195627 424.60595951 305.77804734 435.77155397 292.06591797 445.20410156 C291.27056641 445.77644531 290.47521484 446.34878906 289.65576172 446.93847656 C276.04861218 455.99434967 258.4132958 459.51896144 242.34115601 459.4715271 C240.63018122 459.47832377 240.63018122 459.47832377 238.88464129 459.48525774 C235.08353413 459.49786211 231.28257098 459.49628391 227.48144531 459.49462891 C224.74733953 459.49953322 222.01324368 459.50736684 219.27914429 459.51498413 C212.63496003 459.53154558 205.99081127 459.5370915 199.34660809 459.53820889 C193.94080028 459.53916179 188.53500411 459.54328413 183.12919998 459.54961014 C167.77481821 459.56721026 152.42046432 459.57645108 137.06607239 459.57494919 C135.82632066 459.57482932 135.82632066 459.57482932 134.56152344 459.57470703 C133.73400328 459.57462527 132.90648313 459.57454351 132.05388661 459.57445927 C118.65370716 459.57364699 105.25364028 459.59277315 91.85349338 459.62098376 C78.06694025 459.64977686 64.28044191 459.66352049 50.49385798 459.66179621 C42.7647918 459.66113447 35.0358436 459.66653162 27.30680466 459.68815231 C20.72423964 459.70644907 14.14184606 459.71064241 7.55926649 459.69713347 C4.20722946 459.69064578 0.8557861 459.69254643 -2.4962616 459.70783997 C-30.10347733 459.82557674 -54.68651522 454.87592701 -75.18798828 434.94628906 C-76.54730469 433.58890625 -76.54730469 433.58890625 -77.93408203 432.20410156 C-79.03042969 431.12515625 -79.03042969 431.12515625 -80.14892578 430.02441406 C-88.58305515 421.17275354 -94.47311632 410.59863732 -98.37158203 399.07910156 C-98.72373779 398.04281616 -98.72373779 398.04281616 -99.08300781 396.9855957 C-102.39760269 386.4247714 -103.23279011 375.60182594 -103.19477844 364.59381104 C-103.19860399 363.39413374 -103.20242954 362.19445644 -103.20637101 360.95842528 C-103.21483149 357.66850742 -103.21449541 354.37873461 -103.21019042 351.0888133 C-103.20770453 347.5249362 -103.21676032 343.96108438 -103.22422791 340.3972168 C-103.23692607 333.43025251 -103.23877468 326.46332685 -103.23642764 319.49635294 C-103.23463866 313.82794504 -103.23640651 308.15954879 -103.24065208 302.49114227 C-103.24124727 301.68185573 -103.24184246 300.87256918 -103.24245569 300.0387588 C-103.24366755 298.39423817 -103.24488168 296.74971755 -103.24609806 295.10519692 C-103.25695502 279.70955751 -103.25482 264.31394004 -103.24871322 248.91829941 C-103.24354699 234.86588775 -103.25479504 220.81354547 -103.27381144 206.76114753 C-103.29323261 192.29761862 -103.30143827 177.83412246 -103.29768819 163.37058043 C-103.29578246 155.26428553 -103.29820198 147.15804964 -103.31240273 139.05176544 C-103.32437229 132.14982393 -103.32565949 125.24797775 -103.31361256 118.3460348 C-103.3077624 114.83196405 -103.30651576 111.31806719 -103.31861496 107.80400848 C-103.40450969 76.63407248 -99.52376029 50.43235729 -76.93408203 27.20410156 C-76.28697266 26.49511719 -75.63986328 25.78613281 -74.97314453 25.05566406 C-55.33978897 4.14013018 -27.22727834 -0.17750024 0 0 Z " fill="#111B61" transform="translate(137.93408203125,253.7958984375)"/>
<path d="M0 0 C11.9529977 0 23.53020947 0.0851761 35.375 1.1875 C36.09645203 1.25313141 36.81790405 1.31876282 37.56121826 1.38638306 C122.16478602 9.20089697 204.92512811 44.04666658 267.59375 101.8046875 C269.59601476 103.63142905 271.62891702 105.40129974 273.68359375 107.16796875 C278.51611024 111.38670722 283.03890911 115.89224787 287.5625 120.4375 C288.37396484 121.24509766 289.18542969 122.05269531 290.02148438 122.88476562 C294.88888948 127.76002772 299.54585175 132.7451806 304 138 C304.54245361 138.63574951 305.08490723 139.27149902 305.64379883 139.92651367 C337.66540352 177.69765712 362.13148842 220.48062644 379 267 C379.48678223 268.32451172 379.48678223 268.32451172 379.98339844 269.67578125 C391.65507993 301.71373727 398.5037314 336.0387889 401 370 C401.05639648 370.73992187 401.11279297 371.47984375 401.17089844 372.2421875 C401.90877563 382.19698038 402 391.98210063 402 402 C269.67 401.67 137.34 401.34 1 401 C0.67 268.67 0.34 136.34 0 0 Z " fill="#003299" transform="translate(531,84)"/>
<path d="M0 0 C0 14.85 0 29.7 0 45 C-6.93 45.66 -13.86 46.32 -21 47 C-27.46367648 48.93910294 -33.05149813 50.67482681 -38.9375 53.6875 C-39.62352295 54.03707764 -40.3095459 54.38665527 -41.01635742 54.74682617 C-61.69744317 65.5486437 -77.39222357 83.62602268 -84.62109375 105.91503906 C-87.3423111 115.01688861 -88.25909195 123.36819535 -89 133 C-74.48 133 -59.96 133 -45 133 C-49.49431336 140.86504838 -49.49431336 140.86504838 -51.9609375 143.953125 C-52.78053955 144.9901355 -52.78053955 144.9901355 -53.61669922 146.0480957 C-54.19693848 146.77472412 -54.77717773 147.50135254 -55.375 148.25 C-60.32223128 154.52509045 -65.16086799 160.86044537 -69.875 167.3125 C-75.49208971 174.99304274 -81.22598463 182.5760786 -87.0144043 190.12817383 C-92.24554856 196.96821501 -97.36418322 203.88533727 -102.39648438 210.87304688 C-105.34915738 214.93252597 -108.33121234 218.56944531 -112 222 C-119.69528901 212.22093843 -127.25930407 202.36492463 -134.60595703 192.32104492 C-139.00006185 186.32559528 -143.48135534 180.40202507 -148 174.5 C-154.94307589 165.42569002 -161.76125625 156.26629593 -168.50488281 147.04296875 C-169.88210016 145.16110155 -171.26427356 143.28301034 -172.6484375 141.40625 C-173.38320312 140.4059375 -174.11796875 139.405625 -174.875 138.375 C-175.79925781 137.11816406 -175.79925781 137.11816406 -176.7421875 135.8359375 C-178 134 -178 134 -178 133 C-163.48 133 -148.96 133 -134 133 C-133.67 127.39 -133.34 121.78 -133 116 C-128.93638749 81.6440033 -109.98205982 49.51733884 -83 28 C-69.08331016 17.69483687 -54.58681324 9.94959575 -38 5 C-37.09507812 4.70351563 -36.19015625 4.40703125 -35.2578125 4.1015625 C-23.38125147 0.26918977 -12.71911017 0 0 0 Z " fill="#FCFCFD" transform="translate(250,359)"/>
<path d="M0 0 C3.35927769 1.11975923 3.80914756 1.73602602 5.79296875 4.515625 C6.60217773 5.63420898 6.60217773 5.63420898 7.42773438 6.77539062 C8.00845703 7.59201172 8.58917969 8.40863281 9.1875 9.25 C10.45018186 10.99597965 11.71456805 12.74072772 12.98046875 14.484375 C13.96926025 15.84852539 13.96926025 15.84852539 14.97802734 17.24023438 C18.25311892 21.71036661 21.62666785 26.10381291 25 30.5 C30.64753381 37.87653655 36.20511339 45.31069278 41.68896484 52.80957031 C46.9040871 59.92096524 52.26172352 66.92074431 57.671875 73.88476562 C58.30867187 74.71169922 58.94546875 75.53863281 59.6015625 76.390625 C60.16182129 77.11282227 60.72208008 77.83501953 61.29931641 78.57910156 C63.40923087 81.58253421 65.17893713 84.81313998 67 88 C52.48 88 37.96 88 23 88 C23 91.63 23 95.26 23 99 C20.04438476 134.77701873 2.84529668 167.05966652 -24.1484375 190.61328125 C-32.99224288 198.01542521 -42.85912771 203.58482452 -53 209 C-53.65709961 209.35191406 -54.31419922 209.70382812 -54.99121094 210.06640625 C-59.54611835 212.43166808 -64.0849279 214.16583797 -69 215.625 C-69.99 215.93050781 -69.99 215.93050781 -71 216.2421875 C-84.47636569 220.34826767 -95.52801048 221 -110 221 C-110 206.48 -110 191.96 -110 177 C-101.09 176.01 -101.09 176.01 -92 175 C-76.69080313 171.61300954 -62.58584159 164.66537749 -51 154 C-50.16082031 153.24074219 -49.32164062 152.48148438 -48.45703125 151.69921875 C-29.90534899 134.10178338 -24.52930827 112.70515787 -21 88 C-35.52 88 -50.04 88 -65 88 C-60.50568664 80.13495162 -60.50568664 80.13495162 -58.0390625 77.046875 C-57.49266113 76.35553467 -56.94625977 75.66419434 -56.38330078 74.9519043 C-55.80306152 74.22527588 -55.22282227 73.49864746 -54.625 72.75 C-49.67776872 66.47490955 -44.83913201 60.13955463 -40.125 53.6875 C-35.15970768 46.89819418 -30.11334969 40.17851032 -25 33.5 C-18.01141744 24.36976873 -11.15821654 15.14629134 -4.37182617 5.86499023 C-2.92687598 3.9005883 -1.46595797 1.94876012 0 0 Z " fill="#FDFDFE" transform="translate(360,404)"/>
</svg>
