<?xml version="1.0" encoding="utf-8"?>
<svg xmlns="http://www.w3.org/2000/svg" viewBox="117.375 93.75 253.175 333.125" width="253.175px" height="333.125px">
  <g id="svg4063" transform="matrix(13.325000762939453, 0, 0, 13.325000762939453, -2354.41259765625, 401.8898620605469)" style="">
    <g id="layer1" transform="matrix(1, 0, 0, 1, 179.5, -1046.487061)">
      <g id="g7966" transform="translate(-766.49658,-562.0323)">
        <g id="g8296">
          <path d="m 791.49658,1590.3944 0,18.5 c 0,0.831 -0.669,1.5 -1.50001,1.5 l -15.99997,0 c -0.83101,0 -1.50002,-0.669 -1.50002,-1.5 l 0,-22 c 0,-0.831 0.66901,-1.5 1.50002,-1.5 l 12.49998,0" id="path4992" style="opacity:1;fill:#0d47a1;fill-opacity:1;stroke:none;stroke-width:1;stroke-linecap:round;stroke-linejoin:round;stroke-miterlimit:4.0999999;stroke-dasharray:none"/>
          <path d="m 786.49661,1585.3944 0,3.5 c 0,0.831 0.66899,1.5 1.5,1.5 l 3.5,0 z" id="path5330" style="opacity:1;fill:#42a5f5;fill-opacity:1;stroke:none;stroke-width:1;stroke-linecap:round;stroke-linejoin:round;stroke-miterlimit:4.0999999;stroke-dasharray:none"/>
        </g>
      </g>
    </g>
  </g>
  <path d="M 190.739 359.327 L 190.739 381.703 C 190.739 385.624 190.201 388.763 189.124 391.123 C 188.048 393.481 186.181 395.191 183.523 396.252 C 180.865 397.312 177.108 397.841 172.251 397.841 C 167.211 397.841 163.303 397.312 160.531 396.252 C 157.759 395.191 155.824 393.481 154.724 391.123 C 153.624 388.763 153.074 385.624 153.074 381.703 L 153.074 359.327 L 164.071 359.327 L 164.071 381.523 C 164.071 383.564 164.301 385.163 164.759 386.323 C 165.218 387.483 166.042 388.293 167.234 388.753 C 168.425 389.213 170.098 389.442 172.251 389.442 C 174.267 389.442 175.813 389.213 176.89 388.753 C 177.967 388.293 178.712 387.483 179.124 386.323 C 179.536 385.163 179.742 383.564 179.742 381.523 L 179.742 359.327 L 190.739 359.327 Z M 230.396 397.302 L 230.396 359.327 L 262.7 359.327 L 262.7 367.125 L 241.393 367.125 L 241.393 374.324 L 259.883 374.324 L 259.883 382.124 L 241.393 382.124 L 241.393 389.503 L 262.7 389.503 L 262.7 397.302 L 230.396 397.302 Z M 308.557 397.302 L 308.557 367.426 L 296.185 367.426 L 296.185 359.327 L 331.926 359.327 L 331.926 367.426 L 319.554 367.426 L 319.554 397.302 L 308.557 397.302 Z" style="fill: rgb(255, 255, 255); text-wrap-mode: nowrap;" transform="matrix(1, 0, 0, 1, 0, 3.552713678800501e-15)"/>
  <g id="gear" transform="matrix(1, 0, 0, 1, -272.5, -0.6249999999999964)">
    <path class="st0" d="M 567.967 304.71 C 567.088 304.836 566.167 304.126 565.296 303.703 C 564.098 303.117 562.875 302.582 561.666 302.02 C 559.678 301.097 557.692 300.166 555.716 299.216 C 554.63 298.691 553.545 298.163 552.468 297.621 C 550.96 296.866 549.934 297.096 548.508 297.777 C 544.353 299.76 540.122 301.597 535.828 303.255 C 534.32 303.837 533.451 304.575 532.952 306.081 C 531.36 310.889 529.562 315.631 528.066 320.469 C 527.522 322.228 526.662 322.652 524.973 322.618 C 520.172 322.522 515.365 322.468 510.567 322.638 C 508.395 322.716 507.355 322.088 506.702 319.944 C 505.23 315.102 503.515 310.328 501.746 305.586 C 501.431 304.74 500.501 303.908 499.649 303.509 C 495.237 301.441 490.787 299.446 486.28 297.591 C 485.272 297.178 483.813 297.035 482.863 297.45 C 478.141 299.517 473.492 301.76 468.881 304.067 C 467.504 304.754 466.683 304.58 465.629 303.482 C 461.984 299.695 458.26 295.982 454.484 292.328 C 453.461 291.336 453.357 290.547 453.973 289.293 C 456.087 284.99 457.964 280.567 460.17 276.313 C 461.176 274.372 460.923 272.934 459.978 271.066 C 458.02 267.207 456.23 263.234 454.763 259.167 C 454.119 257.382 453.214 256.542 451.544 255.997 C 446.729 254.419 441.97 252.673 437.145 251.131 C 435.69 250.668 435.15 250.01 435.177 248.464 C 435.268 243.3 435.279 238.131 435.172 232.969 C 435.139 231.307 435.735 230.585 437.274 230.086 C 442.265 228.471 447.231 226.772 452.146 224.943 C 453.078 224.596 454.018 223.645 454.465 222.732 C 456.606 218.355 458.649 213.925 460.559 209.443 C 460.975 208.463 461.098 207.017 460.688 206.081 C 458.614 201.361 456.372 196.714 454.074 192.097 C 453.397 190.736 453.52 189.893 454.636 188.822 C 458.361 185.244 462.036 181.608 465.585 177.855 C 466.784 176.588 467.717 176.695 469.088 177.377 C 473.705 179.676 478.342 181.937 483.049 184.043 C 483.939 184.443 485.285 184.346 486.24 183.99 C 490.638 182.349 495.004 180.605 499.307 178.732 C 500.31 178.296 501.422 177.369 501.814 176.397 C 503.67 171.788 505.347 167.103 506.968 162.404 C 507.466 160.959 508.198 160.466 509.717 160.492 C 514.972 160.581 520.231 160.573 525.485 160.496 C 526.921 160.477 527.541 161.022 527.993 162.335 C 529.575 166.953 531.326 171.516 532.924 176.129 C 533.443 177.621 534.251 178.358 535.837 178.887 C 540.201 180.344 544.421 182.23 548.756 183.779 C 549.782 184.146 551.206 184.23 552.166 183.808 C 556.801 181.771 561.371 179.576 565.897 177.304 C 567.32 176.59 568.229 176.584 569.391 177.813 C 573.002 181.63 576.795 185.274 580.387 189.11 C 580.914 189.673 581.12 191.087 580.799 191.807 C 578.629 196.679 576.211 201.444 574.044 206.318 C 573.65 207.198 573.773 208.526 574.123 209.477 C 575.674 213.715 577.494 217.855 579.003 222.107 C 579.563 223.674 580.201 224.661 581.885 225.22 C 586.345 226.699 590.703 228.494 595.157 229.999 C 596.83 230.565 597.345 231.426 597.309 233.145 C 597.197 238.126 597.161 243.117 597.325 248.097 C 597.388 250.037 596.617 250.772 594.944 251.347 C 590.414 252.91 585.909 254.557 581.465 256.347 C 580.552 256.714 579.636 257.731 579.258 258.665 C 577.43 263.18 575.725 267.748 574.127 272.35 C 573.824 273.228 573.914 274.47 574.301 275.327 C 576.42 280.026 578.746 284.634 580.849 289.34 C 581.189 290.103 581.156 291.561 580.656 292.094 C 579.061 293.785 577.445 295.453 575.817 297.109 C 573.509 299.459 571.172 301.779 568.921 304.181 C 568.604 304.507 568.288 304.665 567.967 304.71 Z M 549.77 240.79 C 549.82 223 535.507 208.443 517.906 208.385 C 499.825 208.325 485.31 222.472 485.246 240.223 C 485.179 258.392 499.42 272.884 517.362 272.91 C 535.295 272.936 549.721 258.64 549.77 240.79 Z" style="fill: rgb(255, 255, 255); stroke-width: 1;"/>
  </g>
</svg>